<svg width="360" height="501" viewBox="0 0 360 501" fill="none" xmlns="http://www.w3.org/2000/svg">
<path fill-rule="evenodd" clip-rule="evenodd" d="M168.007 201.695C203.297 254.984 309.754 212.032 344.677 265.561C374.546 311.343 357.823 392.604 312.353 422.944C261.037 457.185 191.046 390.949 131.671 407.693C87.805 420.063 81.1242 500.301 35.5532 501.003C-7.71403 501.669 -18.4517 435.422 -53.8628 410.551C-94.7248 381.852 -172.541 393.935 -185.535 345.722C-198.716 296.818 -140.016 257.143 -105.097 220.455C-82.0357 196.225 -41.1162 197.348 -19.7887 171.579C8.21961 137.738 -1.57906 80.9141 32.9097 53.7073C73.2109 21.9153 144.121 -22.9344 178.729 14.976C221.63 61.9701 132.874 148.643 168.007 201.695Z" fill="#1B5E20" fill-opacity="0.69"/>
</svg>
