<svg width="198" height="409" viewBox="0 0 198 409" fill="none" xmlns="http://www.w3.org/2000/svg">
<path fill-rule="evenodd" clip-rule="evenodd" d="M-14.8674 0.771737C28.4119 -1.31704 70.795 20.2364 101.774 50.5457C130.357 78.5111 131.183 121.767 146.544 158.695C163.814 200.214 201.715 235.376 197.273 280.128C192.493 328.278 169.026 387.009 122.549 400.395C73.4258 414.543 36.2438 340.37 -14.8674 341.226C-67.6808 342.112 -107.536 426.819 -155.671 405.059C-199.865 385.08 -166.45 311.451 -182.223 265.569C-198.463 218.331 -262.216 183.253 -248.431 135.24C-234.752 87.5979 -166.552 86.1463 -123.609 61.4233C-86.7378 40.1955 -57.3586 2.82248 -14.8674 0.771737Z" fill="#1B5E20" fill-opacity="0.69"/>
</svg>
