<svg width="307" height="280" viewBox="0 0 307 280" fill="none" xmlns="http://www.w3.org/2000/svg">
<path fill-rule="evenodd" clip-rule="evenodd" d="M123.458 13.2676C148.132 2.15768 174.563 -9.62343 201.381 -6.04191C228.822 -2.37703 261.202 8.47832 273.527 33.3097C287.129 60.7149 259.323 93.8802 265.819 123.785C271.007 147.671 303.294 159.701 306.251 183.967C309.152 207.778 294.518 230.615 281.272 250.597C268.641 269.653 250.592 284.087 231.533 296.686C213.493 308.613 193.162 315.27 172.734 322.35C151.279 329.786 128.719 348.032 107.617 339.637C84.8065 330.561 88.849 288.551 65.8957 279.844C34.15 267.802 -11.3645 310.407 -34.6544 285.669C-55.443 263.587 -6.07787 229.088 -10.1959 199.021C-14.1604 170.076 -54.5219 154.951 -56.5498 125.805C-58.4593 98.3607 -44.2013 66.3507 -20.3794 52.6611C5.95803 37.5258 40.4337 61.262 69.7239 53.2402C91.4836 47.2808 102.884 22.5319 123.458 13.2676Z" fill="#1B5E20" fill-opacity="0.69"/>
</svg>
