<svg width="217" height="580" viewBox="0 0 217 580" fill="none" xmlns="http://www.w3.org/2000/svg">
<path fill-rule="evenodd" clip-rule="evenodd" d="M211.141 176.049C236.178 227.293 168.765 278.401 144.899 330.29C130.352 361.917 109.594 388.472 98.2953 421.392C80.4478 473.394 113.036 564.468 59.7797 578.3C2.85324 593.085 -27.0546 504.629 -70.6082 465.26C-90.6922 447.106 -108.574 428.968 -127.18 409.305C-144.735 390.753 -166.292 376.263 -176.831 353C-188.819 326.54 -186.704 297.515 -190.855 268.756C-199.06 211.91 -236.719 153.86 -213.145 101.415C-188.932 47.5502 -129.271 -6.8156 -70.8483 1.7838C-8.37494 10.9794 -1.51517 107.297 52.1564 140.466C99.2757 169.585 186.838 126.304 211.141 176.049Z" fill="#1B5E20" fill-opacity="0.69"/>
</svg>
