<svg width="378" height="547" viewBox="0 0 378 547" fill="none" xmlns="http://www.w3.org/2000/svg">
<path fill-rule="evenodd" clip-rule="evenodd" d="M296.063 25.7439C336.251 10.345 379.291 -5.95999 421.55 2.15861C464.793 10.4662 515.226 30.6368 532.543 71.1754C551.656 115.916 504.492 166.044 512.093 214.107C518.164 252.499 568.342 274.526 570.836 313.316C573.283 351.381 547.972 386.306 525.125 416.827C503.338 445.933 473.368 467.21 441.96 485.483C412.231 502.78 379.342 511.504 346.262 520.891C311.519 530.75 274.039 557.669 241.292 542.426C205.893 525.95 216.125 459.624 180.466 443.72C131.149 421.722 55.0086 485.229 20.2705 443.844C-10.7368 406.903 70.7826 356.613 66.9717 308.508C63.303 262.197 0.583863 234.523 0.00845455 188.07C-0.533381 144.328 25.0123 94.8047 64.0821 75.2332C107.278 53.5949 159.869 94.4044 207.108 84.3267C242.202 76.84 262.551 38.5847 296.063 25.7439Z" fill="#1B5E20" fill-opacity="0.69"/>
</svg>
