<svg width="394" height="547" viewBox="0 0 394 547" fill="none" xmlns="http://www.w3.org/2000/svg">
<path fill-rule="evenodd" clip-rule="evenodd" d="M281.339 0.699103C315.427 -5.03141 340.582 34.0512 368.525 54.392C395.53 74.0494 419.807 95.3994 443.613 118.823C473.342 148.076 530.106 168.595 526.824 210.152C523.253 255.372 455.274 265.395 429.111 302.459C410.744 328.478 424.165 372.674 398.642 391.738C372.326 411.394 327.209 377.353 301.489 397.782C255.046 434.671 263.307 530.909 205.677 545.01C159.955 556.197 139.537 480.412 108.556 444.989C83.9567 416.863 46.4201 394.072 41.3089 357.073C35.9662 318.398 87.5685 287.153 81.4252 248.596C74.547 205.427 15.6772 185.36 7.11912 142.492C-1.9886 96.8708 -11.2344 20.9579 33.2305 7.18606C92.3161 -11.1142 138.366 84.3046 200.207 82.6877C239.15 81.6696 242.924 7.15706 281.339 0.699103Z" fill="#1B5E20" fill-opacity="0.69"/>
</svg>
